# xmcd CD database file
#
# Track frame offsets:
#	150
#	18735
#	34292
#	71840
#	91195
#	112100
#	134795
#	175857
#	201972
#	218957
#
# Disc length: 3227 seconds
#
# Revision: 0
# Processed by: cddbd v1.5.2PL0 Copyright (c) Steve Scherf et al.
# Submitted via: CDex 1.70beta2
#
DISCID=9e0c990a
DTITLE=Various Artist - City Swing Sampler 2
DYEAR=1900
DGENRE=Jazz
TTITLE0=Memories Of You-Zoot Sims
TTITLE1=Blueberry Hill-Louis Armstrong
TTITLE2=We'll Be Together again-McCoy Tyner
TTITLE3=Imagination-Carmen McRae
TTITLE4=I Don't Stand A Ghost Of A Chance With You-Stan Getz
TTITLE5=Misty-Sarah Vaughan
TTITLE6=You Don't Know What Love Is-Art Blakey
TTITLE7=In A Sentimental Mood-John Bunch
TTITLE8=I Fall In Love Too Easily-Carmen McRae
TTITLE9=I'll Close My eyes-O'Donel Levy
EXTD=
EXTT0=
EXTT1=
EXTT2=
EXTT3=
EXTT4=
EXTT5=
EXTT6=
EXTT7=
EXTT8=
EXTT9=
PLAYORDER=
